<?xml version="1.0" standalone="no"?>
<!DOCTYPE svg PUBLIC "-//W3C//DTD SVG 20010904//EN"
 "http://www.w3.org/TR/2001/REC-SVG-20010904/DTD/svg10.dtd">
<svg version="1.0" xmlns="http://www.w3.org/2000/svg"
 width="700.000000pt" height="700.000000pt" viewBox="0 0 700.000000 700.000000"
 preserveAspectRatio="xMidYMid meet">
<metadata>
Created by potrace 1.11, written by Peter Selinger 2001-2013
</metadata>
<g transform="translate(0.000000,700.000000) scale(0.100000,-0.100000)"
fill="#000000" stroke="none">
<path d="M0 3500 l0 -3500 3500 0 3500 0 0 3500 0 3500 -3500 0 -3500 0 0
-3500z m6686 3187 c4 -4 8 -1440 8 -3192 1 -2824 -1 -3185 -14 -3186 -8 0
-1445 -1 -3193 -2 -2818 -2 -3177 0 -3178 13 0 8 -2 1441 -2 3184 -2 2243 1
3173 9 3180 12 12 6358 15 6370 3z"/>
<path d="M3880 5509 c-86 -8 -183 -18 -220 -24 -14 -2 -41 -6 -60 -9 -19 -3
-44 -8 -55 -10 -11 -2 -56 -11 -100 -20 -94 -20 -340 -84 -364 -95 -156 -76
-380 -220 -451 -291 -8 -8 -36 -32 -62 -53 -82 -65 -241 -229 -309 -317 -112
-146 -199 -299 -274 -486 -45 -111 -117 -359 -140 -484 -37 -197 -47 -296 -50
-535 -4 -307 16 -417 143 -783 75 -215 129 -314 234 -427 20 -22 45 -49 55
-61 24 -28 240 -186 319 -235 113 -69 194 -96 444 -148 52 -11 122 -23 155
-27 33 -3 64 -9 69 -11 4 -3 99 -7 210 -8 244 -3 348 7 457 45 31 10 122 33
202 49 116 24 181 45 305 97 232 97 262 112 288 136 l24 23 0 259 c0 201 3
263 13 275 19 23 37 91 37 142 0 24 9 63 20 87 20 43 26 73 35 153 19 183 144
440 261 535 44 36 45 39 42 88 l-3 50 -628 1 c-346 0 -633 -3 -638 -6 -9 -5
-93 -243 -101 -283 -3 -17 12 -18 247 -20 245 -2 251 -2 305 -27 64 -30 125
-89 141 -137 13 -39 16 -195 5 -267 -4 -27 -11 -77 -16 -110 -5 -33 -12 -85
-15 -115 -3 -30 -8 -62 -10 -70 -2 -8 -7 -42 -10 -75 -3 -33 -8 -73 -10 -90
-3 -16 -7 -42 -9 -56 -2 -15 -7 -53 -11 -85 -10 -89 -12 -92 -78 -125 -67 -35
-111 -42 -159 -28 -23 6 -36 5 -47 -4 -48 -41 -130 -74 -202 -83 -23 -3 -58
-12 -77 -20 -58 -24 -81 -27 -227 -30 -195 -3 -289 13 -515 86 -171 57 -228
103 -411 335 -133 170 -171 262 -184 448 -3 34 -13 89 -24 122 -24 76 -49 201
-65 330 -12 92 -13 392 -2 455 2 14 7 52 11 85 17 167 74 441 110 530 21 52
107 220 146 287 18 29 54 92 80 141 47 83 109 153 194 218 17 13 32 26 35 29
8 9 111 83 195 142 128 88 302 155 500 192 77 14 400 16 465 3 14 -3 47 -8 74
-12 127 -17 263 -75 338 -144 114 -104 138 -188 138 -488 l0 -211 124 1 c68 1
126 4 129 7 3 3 7 34 10 70 3 36 8 77 11 93 14 65 24 132 30 193 3 28 22 85
42 128 19 43 38 88 40 100 3 11 9 45 15 73 5 29 25 86 44 128 41 90 65 177 65
238 l0 44 -57 6 c-32 3 -69 8 -83 11 -53 12 -137 25 -195 31 -73 7 -83 9 -215
33 -89 16 -147 19 -380 18 -151 0 -309 -4 -350 -7z"/>
</g>
</svg>
