<svg xmlns="http://www.w3.org/2000/svg" width="784.5" height="426.3" viewBox="0 0 784.5 426.3">
    <path fill="#000000" d="M784.5 426.3v-38.8c-14.9 0-26.3-3.8-34-11.4-7.6-7.6-15-22.1-22.1-43.5l-6.3-19.7c-14.2-43.4-37.2-71.9-69.5-85.6 29.9-5.8 53.6-18 71.3-36.7 17.7-18.6 26.5-40.9 26.5-66.4 0-35.9-13.5-65.5-40.5-88.9C682.9 11.7 648.8 0 607.5 0c-62.8 0-111.3 27-145.6 80.8l30.1 25.6c22.2-23.8 45.1-35.8 68.7-35.8 19.3 0 35.9 6.3 49.8 19 13.8 12.7 20.8 27.9 20.8 45.4 0 14.6-5.5 27.3-16.3 38-10.9 10.7-23.6 16.1-38.2 16.1-26.4 0-63.5-18.8-111-56.1l-24-18.9C364.1 52.9 290 22.4 219.3 22.4c-61.2 0-113.1 20.1-155.5 60.4S0 172.2 0 230c0 58.7 22 106 65.9 142.1 43.9 36 101.7 54.1 173.1 54.1h13v-38.8c-42.3-2.8-76-17.5-100.9-44.2-24.8-26.5-37.2-60.9-37.2-103.4 0-41.8 15.7-77.7 47-107.3 31.5-29.7 69.4-44.6 113.9-44.6 42.9 0 81 13.1 114.5 39.2s50.2 56 50.2 89.5c0 15.9-5.2 29.5-15.5 40.5s-23 16.5-38.2 16.5c-15.3 0-26.7-4.2-34.4-12.3-7.6-8.3-11.5-20.8-11.5-37.5 0-10.2 2.8-22.2 8.6-36.2l-35.2-16.1c-15.7 37.1-23.6 68.3-23.6 93.4 0 30.9 10 57.3 30 79.4 20 22.1 44.2 33.2 72.3 33.2 18.1 0 34.6-4.4 49.6-13.4 14.9-8.8 28.1-22.2 39.9-40.3 15.3 37.9 39.2 64.6 72.1 79.7 32.8 15.1 82.6 22.8 149.4 22.8h81.5zM502 234.7c38.4 7.4 73.5 39.4 105.4 96.2l6.7 11.4c13.9 24.5 30.7 40.6 50.2 48.2-99.9 0-154-52-162.3-155.8z"/>
</svg>