<svg version="1.1"
     xmlns="http://www.w3.org/2000/svg" xmlns:xlink="http://www.w3.org/1999/xlink" xmlns:a="http://ns.adobe.com/AdobeSVGViewerExtensions/3.0/"
     x="0px" y="0px" width="20.5px" height="20.5px" viewBox="0 0 20.5 20.5" style="enable-background:new 0 0 20.5 20.5;"
     xml:space="preserve">
<defs>
</defs>
<g>
    <path d="M20.5,20.5H0V0h20.5V20.5z M0.5,20H20V0.5H0.5V20z"/>
</g>
<path d="M10.1,14.2c-0.5,0-0.9-0.1-1.3-0.2c-0.4-0.1-0.7-0.4-1-0.6c-0.3-0.3-0.5-0.6-0.6-1C7,12,7,11.5,7,11c0-0.7,0.1-1.3,0.3-1.9
    c0.2-0.6,0.5-1.1,0.9-1.5c0.4-0.4,0.9-0.8,1.4-1c0.5-0.2,1.1-0.4,1.8-0.4c0.2,0,0.5,0,0.7,0c0.2,0,0.5,0.1,0.7,0.1
    c0.2,0,0.5,0.1,0.7,0.1l0,0.1c-0.1,0.2-0.1,0.4-0.2,0.6c-0.1,0.2-0.1,0.4-0.2,0.6c-0.1,0.2-0.1,0.5-0.2,0.8l-0.5,0
    c0-0.1,0-0.2,0-0.3c0-0.1,0-0.1,0-0.2c0-0.1,0-0.2,0-0.2c0-0.7-0.5-1-1.6-1c-0.4,0-0.8,0.1-1.2,0.3C9.4,7.4,9.1,7.6,8.8,8
    C8.6,8.3,8.4,8.7,8.2,9.1S8,10.1,8,10.7c0,0.4,0.1,0.9,0.2,1.2c0.1,0.4,0.3,0.7,0.5,0.9c0.2,0.3,0.4,0.5,0.7,0.6
    c0.3,0.1,0.6,0.2,1,0.2c0.2,0,0.4,0,0.6-0.1c0.2,0,0.4-0.1,0.5-0.2c0.2-0.1,0.3-0.2,0.5-0.2l0.2-1.5c0-0.3,0-0.4-0.1-0.5
    C12,11.1,11.8,11,11.5,11h-0.8l0,0l0.2-0.6c0.2,0,0.3,0,0.5,0c0.1,0,0.3,0,0.5,0c0.2,0,0.3,0,0.5,0c0.1,0,0.2,0,0.4,0
    c0.1,0,0.2,0,0.3,0c0.1,0,0.2,0,0.3,0l0,0.2c-0.2,0.2-0.4,0.5-0.5,1.1c0,0.1,0,0.2-0.1,0.4c0,0.1,0,0.3-0.1,0.4c0,0.1,0,0.3,0,0.4
    c0,0.1,0,0.2,0,0.3v0.2c0,0,0,0.1,0,0.1l-0.1,0.1c-0.2,0.1-0.5,0.2-0.7,0.3c-0.2,0.1-0.5,0.1-0.8,0.2C10.8,14.2,10.5,14.2,10.1,14.2
    z"/>
<g>
    <path d="M19,19H1.5V1.5H19V19z M2,18.5h16.5V2H2V18.5z"/>
</g>
</svg>
