<svg xmlns="http://www.w3.org/2000/svg" width="84.5" height="34.5" viewBox="0 0 84.5 34.5">
  <path d="M84.5 34.5H0V0h84.5v34.5zM.5 34H84V.5H.5V34z"/>
  <path d="M11 15.5c-.5 0-.9-.1-1.3-.2s-.7-.4-1-.6c-.3-.3-.5-.6-.6-1-.2-.4-.2-.8-.2-1.3 0-.7.1-1.3.3-1.9.2-.6.5-1.1.9-1.5.4-.4.9-.8 1.4-1 .5-.2 1.1-.4 1.8-.4h.7c.2 0 .5.1.7.1.2 0 .5.1.7.1v.1c-.1.2-.1.4-.2.6-.1.2-.1.4-.2.6 0 .2 0 .5-.1.7h-.5v-.3-.2-.2c0-.7-.5-1-1.6-1-.4 0-.8.1-1.2.3-.4.2-.7.4-1 .8-.3.3-.5.7-.6 1.2-.1.5-.2 1-.2 1.5 0 .4.1.9.2 1.2.1.4.3.7.5.9s.4.5.7.6c.3.1.6.2 1 .2.2 0 .4 0 .6-.1.2 0 .4-.1.5-.2.2-.1.3-.2.5-.2l.2-1.5c0-.3 0-.4-.1-.5-.1-.1-.2-.1-.5-.1h-.8l.2-.6H14.3v.2c-.2.2-.4.5-.5 1.1 0 .1 0 .2-.1.4s0 .3-.1.4V14.7l-.1.1c-.2.1-.5.2-.7.3-.2.1-.5.1-.8.2-.3.1-.6.2-1 .2zM17.4 12.3v.6c0 .6.1 1.1.4 1.4.3.3.7.5 1.3.5.6 0 1.2-.2 1.5-.5.4-.4.6-.9.7-1.6v-.4s0-.4.1-.6c0-.2 0-.4.1-.6 0-.2 0-.5.1-.7.1-.5.1-1.1.2-1.6v-.5c0-.1-.1-.1-.3-.1H21v-.6h2.1c.1 0 .3 0 .4-.1l-.1.5c-.2 0-.3 0-.4.1-.1 0-.2.1-.3.1-.1 0-.1.1-.1.2s0 .2-.1.3l-.5 4.1c-.1.8-.4 1.5-1 1.9-.6.5-1.3.7-2.2.7-.7 0-1.3-.2-1.7-.6-.4-.4-.6-.9-.6-1.6v-.5l.5-4v-.5c0-.1-.2-.1-.3-.1h-.1-.1-.1l.1-.5h2.1c.1 0 .3 0 .4-.1l-.1.5c-.3 0-.5.1-.6.2-.3.1-.3.3-.4.5l-.5 3.6zM26.6 8.1c-.5 0-.8 0-1.1.1-.3 0-.5.1-.6.2-.1.1-.2.2-.3.4s-.2.5-.2.8h-.5c0-.2.1-.4.1-.6 0-.2.1-.4.1-.6 0-.2.1-.5.1-.7l.1-.1.9.1h3.6l1-.1h.2c0 .3 0 .5-.1.7v1.2h-.5c0-.4 0-.6-.1-.8 0-.2-.1-.3-.2-.4-.1-.1-.3-.2-.5-.2s-.6-.1-1-.1c0 .2-.1.5-.2.8-.1.4-.1.7-.2 1.2-.1.4-.1.9-.2 1.3-.1.5-.1.9-.2 1.3s-.1.7-.1 1c0 .3-.1.5-.1.5 0 .2 0 .4.1.5.1.1.2.1.4.1h.7l-.2.5H24.3l.1-.5c.3 0 .5-.1.6-.1.2 0 .3-.1.4-.2.1-.1.2-.2.2-.4s.1-.4.1-.8l.9-5.1zM32.1 14.3c0 .2.1.3.2.4.1.1.3.1.7.1h1.1c.3 0 .5-.1.7-.2.2-.1.3-.3.4-.4.1-.2.2-.5.3-.8l.5-.1v.1c-.1.2-.1.4-.2.6-.1.2-.1.4-.2.6-.1.2-.1.5-.2.7l-.1.1h-4.5c-.2 0-.3 0-.5.1l.1-.5c.4 0 .6-.1.7-.3.1-.1.2-.4.3-.7l.6-5.1v-.5c0-.1-.2-.1-.3-.1h-.1-.1-.1l.1-.5h4.3c.2 0 .4 0 .6-.1v.1c-.1.2-.1.4-.2.6 0 .2-.1.4-.2.6.1 0 0 .3 0 .5h-.5v-.3-.3-.3c0-.1 0-.2-.1-.3 0-.1-.1-.1-.3-.2-.1 0-.3-.1-.5-.1h-1.4c-.1 0-.2 0-.2.1-.1 0-.1.1-.1.1 0 .1 0 .2-.1.3l-.4 2.4h2.1c.2 0 .4 0 .6-.1l-.1.9h-2.1c-.2 0-.3 0-.4.1-.1.7-.2 1.2-.2 1.5-.1.3-.1.5-.1.7 0 .1-.1.2-.1.3zM43.3 13.7l.6-5c0-.3-.1-.5-.3-.5h-.4l.2-.5h1.9c.1 0 .3 0 .4-.1l-.1.5c-.3 0-.5.1-.6.2-.1.1-.2.3-.3.5l-1 6.8-.3.2c-.5-.9-.9-1.8-1.3-2.6s-.8-1.5-1.1-2.2c-.4-.7-.7-1.4-1.1-2l-.7 5.3v.4s.1.1.3.1h.6l-.2.5h-2.2l.1-.5c.2 0 .4-.1.6-.2.1-.1.2-.3.3-.5l.8-5.3c0-.2 0-.4-.2-.5-.1-.1-.4-.2-.8-.2l.1-.4h1.7c.4.8.8 1.6 1.2 2.3.4.7.7 1.4 1 1.9.1.6.4 1.2.8 1.8zM47.2 15.3h-.9c-.1 0-.3 0-.4.1l.1-.5c.2 0 .3-.1.5-.1.1-.1.2-.1.3-.2.1-.1.1-.2.2-.3 0-.1.1-.3.1-.4l.6-5.1v-.5c0-.1-.2-.1-.3-.1h-.1-.1-.1l-.1-.6h2.6c.7 0 1.2.1 1.6.4.4.3.6.7.6 1.2s-.1.9-.4 1.2c-.3.4-.7.6-1.2.8.5.1.9.3 1.2.6.3.3.4.6.4 1.1 0 .3-.1.6-.2.9-.2.3-.4.6-.6.8-.3.2-.6.4-.9.5-.3.1-.7.2-1.1.2-.3 0-.5 0-.8-.1-.5.1-.7.1-1 .1zm.9-3.6l-.3 2.3c0 .3 0 .5.2.7.2.1.5.2 1 .2s.9-.2 1.2-.5c.3-.3.5-.7.5-1.3 0-.4-.1-.7-.3-1-.2-.2-.6-.4-1.1-.5l-1.2.1zm.1-.6h1.3c.2-.1.5-.2.6-.3.2-.1.3-.3.5-.5.1-.2.2-.5.2-.9 0-.5-.2-.8-.5-1-.3-.2-.8-.3-1.4-.3-.1 0-.1 0-.2.1s-.1.1-.1.2c-.1.4-.1.8-.2 1.3s-.1.9-.2 1.4zM54.8 12.3v.6c0 .6.1 1.1.4 1.4.3.3.7.5 1.3.5.6 0 1.2-.2 1.5-.5.4-.4.6-.9.7-1.6v-.4c0-.2 0-.4.1-.6 0-.2 0-.4.1-.6 0-.2 0-.5.1-.7-.1-.5 0-1 0-1.6v-.5c0-.1-.1-.1-.3-.1h-.5l.1-.5h2.1c.1 0 .3 0 .4-.1l-.1.5c-.2 0-.3 0-.4.1-.1 0-.2.1-.3.1-.1 0-.1.1-.1.2s0 .2-.1.3l-.5 4.1c-.1.8-.4 1.5-1 1.9-.6.5-1.3.7-2.2.7-.7 0-1.3-.2-1.7-.6-.4-.4-.6-.9-.6-1.6v-.5l.5-4v-.5c0-.1-.2-.1-.3-.1h-.2-.1l.1-.5h2.1c.1 0 .3 0 .4-.1l-.1.5c-.3 0-.5.1-.6.2-.1.1-.2.3-.2.5l-.6 3.5zM63.3 12l-.3 1.8v.5c0 .1 0 .2.1.3.1.1.1.1.2.1h.4l-.2.5h-2.4l.2-.5c.2 0 .3-.1.5-.1.1 0 .2-.1.3-.2.1-.1.1-.2.2-.3 0-.1.1-.3.1-.4l.6-5.1v-.5c0-.1-.2-.1-.3-.1h-.1-.1-.1l.1-.5h2.6c.3 0 .6 0 .9.1.3.1.5.2.7.3.2.1.3.3.5.5-.2.4-.2.6-.2.9 0 .5-.2 1-.5 1.4-.3.4-.8.8-1.4 1.1l1 2.1c.2.4.4.7.6.8.2.1.4.2.8.2l-.1.4-1 .1c-.2 0-.4-.1-.6-.3-.2-.2-.4-.5-.5-.8l-1-2.4h-1zm1.3-.5s.1 0 .2-.1c.2-.1.3-.2.5-.3.2-.2.4-.4.5-.6.2-.3.2-.6.2-1 0-.9-.6-1.4-1.9-1.4-.1 0-.1 0-.2.1 0 0-.1.1-.1.2-.1.6-.2 1.1-.2 1.6-.1.5-.1.9-.2 1.4l1.2.1zM71.7 15.5c-.5 0-.9-.1-1.3-.2s-.7-.4-1-.6c-.3-.3-.5-.6-.6-1-.2-.4-.2-.8-.2-1.3 0-.7.1-1.3.3-1.9.2-.6.5-1.1.9-1.5.4-.4.9-.8 1.4-1 .5-.2 1.1-.4 1.8-.4h.7c.2 0 .5.1.7.1.2 0 .5.1.7.1v.1c0 .1-.1.3-.1.5-.1.2-.1.4-.2.6-.1.2-.1.5-.2.8h-.5v-.3-.2-.2c0-.7-.5-1-1.6-1-.4 0-.8.1-1.2.3-.4.2-.7.4-1 .8-.3.3-.5.7-.6 1.2-.1.5-.2 1-.2 1.5 0 .4.1.9.2 1.2.1.4.3.7.5.9s.4.5.7.6c.3.1.6.2 1 .2.2 0 .4 0 .6-.1.2 0 .4-.1.5-.2.2-.1.3-.2.5-.2l.2-1.5c0-.3 0-.4-.1-.5-.1-.1-.2-.1-.5-.1h-.8l.2-.6H75v.2c-.2.2-.4.5-.5 1.1 0 .1 0 .2-.1.4 0 .1 0 .3-.1.4V14.7l-.1.1c-.2.1-.5.2-.7.3-.2.1-.5.1-.8.2-.3.1-.6.2-1 .2zM11 26.6c-.5 0-.9-.1-1.3-.2s-.7-.4-1-.6-.5-.6-.6-1c-.2-.4-.2-.8-.2-1.3 0-.7.1-1.3.3-1.9.2-.6.5-1.1.9-1.5.4-.4.9-.8 1.4-1 .5-.2 1.1-.4 1.8-.4h.7c.2 0 .5.1.7.1.2 0 .5.1.7.1v.1c-.1.2-.1.4-.2.6-.1.2-.1.4-.2.6 0 .2 0 .5-.1.8h-.5v-.3-.2-.2c0-.7-.5-1-1.6-1-.4 0-.8.1-1.2.3-.4.2-.7.4-1 .8-.3.3-.5.7-.6 1.2 0 .4-.1.9-.1 1.4 0 .4.1.9.2 1.2.1.4.3.7.5.9s.4.5.7.6c.3.1.6.2 1 .2.5 0 1-.2 1.3-.5s.7-.8.9-1.5h.5c-.1.2-.1.4-.2.6-.1.2-.1.4-.2.6-.1.2-.1.4-.2.7l-.1.1c-.2.1-.4.2-.6.2-.2.1-.5.1-.7.2-.3.3-.6.3-1 .3zM18 26.6c-.4 0-.8-.1-1.2-.2-.4-.2-.7-.4-.9-.7-.3-.3-.5-.6-.6-1-.1-.4-.2-.8-.2-1.3 0-.6.1-1.3.3-1.8.2-.6.5-1.1.9-1.5.4-.4.8-.8 1.3-1 .5-.2 1.1-.4 1.6-.4.4 0 .8.1 1.2.2s.7.4.9.7c.3.3.5.6.6 1 .1.4.2.8.2 1.3 0 .6-.1 1.3-.3 1.8-.2.6-.5 1.1-.9 1.5-.4.4-.8.8-1.4 1-.3.3-.9.4-1.5.4zm.3-.6c.4 0 .8-.1 1.2-.3.4-.2.7-.4.9-.8.3-.3.5-.7.6-1.2.1-.5.2-.9.2-1.5 0-.5-.1-.9-.2-1.2-.1-.4-.3-.7-.5-.9-.2-.3-.4-.5-.7-.6-.3-.1-.6-.2-.9-.2-.4 0-.8.1-1.2.3-.4.2-.7.4-.9.8-.3.3-.5.7-.6 1.2-.1.4-.2.9-.2 1.5 0 .5.1.9.2 1.2.1.4.3.7.4.9.2.3.4.5.7.6.4.1.7.2 1 .2zM24.6 26.4h-1.1c-.2 0-.3 0-.4.1l.1-.5c.3 0 .5-.1.6-.3.1-.1.2-.4.3-.7l.6-5.1v-.5c-.1-.1-.2-.1-.3-.1h-.1-.1-.1l.1-.5h2.1c.1 0 .3 0 .4-.1l-.1.5c-.2 0-.3.1-.4.1-.1 0-.2.1-.2.2-.1.1-.1.2-.1.3 0 .1-.1.3-.1.6 0 .2-.1.5-.1.8-.1.3-.1.6-.2 1-.1.3-.1.7-.2 1.1-.1.4-.1.7-.1 1 0 .3-.1.6-.1.8v.7c0 .1.1.1.1.2.1 0 .2.1.3.1h.5c.3 0 .6 0 .8-.1.2 0 .4-.1.5-.2.1-.1.3-.3.4-.5.1-.2.2-.5.3-.9h.5c-.1.2-.1.4-.2.7-.1.2-.1.4-.2.7-.1.3-.1.5-.2.8l-.1.1h-2.1c-.5-.3-.8-.3-1.1-.3zM30.2 26.4h-1.1c-.2 0-.3 0-.4.1l.1-.5c.3 0 .5-.1.6-.3.1-.1.2-.4.3-.7l.6-5.1v-.5c-.1-.1-.2-.1-.3-.1h-.1-.1-.1l.1-.5h2.1c.1 0 .3 0 .4-.1l-.1.5c-.2 0-.3.1-.4.1-.1 0-.2.1-.2.2-.1.1-.1.2-.1.3 0 .1-.1.3-.1.6 0 .2-.1.5-.1.8-.1.3-.1.6-.2 1s-.1.7-.2 1.1c-.1.4-.1.7-.1 1 0 .3-.1.6-.1.8v.7c0 .1.1.1.1.2.1 0 .2.1.3.1h.5c.3 0 .6 0 .8-.1.2 0 .4-.1.5-.2.1-.1.3-.3.4-.5.1-.2.2-.5.3-.9h.5c-.1.2-.1.4-.2.7-.1.2-.1.4-.2.7-.1.3-.1.5-.2.8l-.1.1h-2.1c-.5-.3-.8-.3-1.1-.3zM36.5 25.5c0 .2.1.3.2.4s.3.1.7.1h1.1c.3 0 .5-.1.7-.2.2-.1.3-.3.4-.4.1-.2.2-.5.3-.8l.5-.1v.1c-.1.2-.1.4-.2.6-.1.2-.1.4-.2.6-.1.2-.1.5-.2.7l-.1.1h-4.5c-.2 0-.3 0-.5.1l.1-.5c.4 0 .6-.1.7-.3.1-.1.2-.4.3-.7l.6-5.1v-.5c0-.1-.2-.1-.3-.1H36h-.1-.1l.1-.5h4.3c.2 0 .4 0 .6-.1v.1c-.1.2-.1.4-.2.6 0 .2-.1.4-.2.6-.1.2-.1.5-.2.8h-.5v-.3-.3-.3c0-.1 0-.2-.1-.3 0-.1-.1-.1-.3-.2-.1 0-.3-.1-.5-.1h-1.4c-.1 0-.2 0-.2.1-.1 0-.1.1-.1.1 0 .1 0 .2-.1.3v2.2h2.1c.2 0 .4 0 .6-.1l-.2.7h-2.1c-.2 0-.3 0-.4.1-.1.7-.2 1.2-.2 1.5-.1.3-.1.5-.1.7-.2.1-.2.3-.2.4zM44.8 26.6c-.5 0-.9-.1-1.3-.2s-.7-.4-1-.6c-.3-.3-.5-.6-.6-1-.2-.4-.2-.8-.2-1.3 0-.7.1-1.3.3-1.9.2-.6.5-1.1.9-1.5.4-.4.9-.8 1.4-1 .5-.2 1.1-.4 1.8-.4h.7c.2 0 .5.1.7.1.2 0 .5.1.7.1v.1c-.1.2-.1.4-.2.6-.1.2-.1.4-.2.6-.1.2-.1.5-.2.8h-.5v-.3-.2-.2c0-.7-.5-1-1.6-1-.4 0-.8.1-1.2.3-.4.2-.7.4-1 .8-.3.3-.5.7-.6 1.2-.1.5-.2 1-.2 1.5 0 .4.1.9.2 1.2.1.4.3.7.5.9s.4.5.7.6c.3.1.6.2 1 .2.5 0 1-.2 1.3-.5.4-.3.7-.8.9-1.5h.5c-.1.2-.1.4-.2.6-.1.2-.1.4-.2.6-.1.2-.1.4-.2.7l-.1.1c-.2.1-.4.2-.6.2-.2.1-.5.1-.7.2-.2.2-.5.2-.8.2zM51.6 19.2c-.5 0-.8 0-1.1.1-.3 0-.5.1-.6.2s-.2.2-.3.4c-.1.2-.2.5-.2.8h-.5c.1-.2.1-.4.2-.6 0-.2.1-.4.1-.6 0-.2.1-.5.1-.7l.1-.1.9.1h3.6l1-.1.1.1c0 .3 0 .5-.1.7v1.2h-.5c0-.4 0-.6-.1-.8 0-.2-.1-.3-.2-.4-.1-.1-.3-.2-.5-.2s-.6-.1-1-.1c0 .2-.1.5-.2.8s-.1.7-.2 1.2c-.1.4-.1.9-.2 1.3-.1.5-.1.9-.2 1.3s-.1.7-.1 1c0 .3-.1.5-.1.5 0 .2 0 .4.1.5s.2.1.4.1h.7l-.2.5H49.3l.1-.5c.3 0 .5-.1.6-.1.2 0 .3-.1.4-.2.1-.1.2-.2.2-.4s.1-.4.1-.8l.9-5.2zM58 19.9c-.1.5-.2 1.1-.3 1.7-.1.6-.2 1.2-.3 1.7-.1.5-.1.9-.2 1.2 0 .3-.1.5-.1.6v.4c0 .2 0 .3.1.4.1.1.2.1.3.1H58.1l-.1.5h-2.4c-.2 0-.3 0-.4.1l.1-.5c.2 0 .3-.1.5-.1.1-.1.2-.1.3-.2.1-.1.1-.2.2-.3 0-.1.1-.3.1-.4L57 20v-.5c0-.1-.2-.1-.3-.1H56.1l.1-.5H58.4c.2 0 .3 0 .5-.1l-.1.5c-.2 0-.3.1-.4.1-.1 0-.2.1-.3.1s-.1.1-.2.2c.1 0 .1.1.1.2zM62.5 26.6c-.4 0-.8-.1-1.2-.2-.4-.2-.7-.4-.9-.7-.3-.3-.5-.6-.6-1-.1-.4-.2-.8-.2-1.3 0-.6.1-1.3.3-1.8s.5-1.1.9-1.5c.4-.4.8-.8 1.3-1 .5-.2 1.1-.4 1.6-.4.4 0 .8.1 1.2.2s.7.4.9.7c.3.3.5.6.6 1 .1.4.2.8.2 1.3 0 .6-.1 1.3-.3 1.8-.2.6-.5 1.1-.9 1.5-.4.4-.8.8-1.4 1-.4.3-.9.4-1.5.4zm.3-.6c.4 0 .8-.1 1.2-.3.4-.2.7-.4.9-.8.3-.3.5-.7.6-1.2.1-.5.2-.9.2-1.5 0-.5-.1-.9-.2-1.2-.1-.4-.3-.7-.5-.9-.2-.3-.4-.5-.7-.6-.3-.1-.6-.2-.9-.2-.4 0-.8.1-1.2.3-.4.2-.7.4-.9.8-.3.3-.5.7-.6 1.2-.1.4-.2.9-.2 1.5 0 .5.1.9.2 1.2.1.4.3.7.4.9.2.3.4.5.7.6.3.1.6.2 1 .2zM73.2 24.8l.6-5c0-.3-.1-.5-.3-.5h-.4l.2-.5h1.9c.1 0 .3 0 .4-.1l-.1.5c-.3 0-.5.1-.6.2-.1.1-.2.3-.3.5l-1 6.8-.3.2c-.5-.9-.9-1.8-1.3-2.6s-.8-1.5-1.1-2.2c-.4-.7-.7-1.4-1.1-2l-.7 5.3v.4c0 .1.1.1.3.1h.6l-.2.5h-2.2l.1-.5c.2 0 .4-.1.6-.2.1-.1.2-.3.3-.5l.8-5.3c0-.2 0-.4-.2-.5-.1-.1-.4-.2-.8-.2l.1-.4h1.7c.4.8.8 1.6 1.2 2.3.4.7.7 1.4 1 1.9.1.6.5 1.3.8 1.8z"/>
  <path d="M82.6 32.6H1.9V1.9h80.8v30.7zm-80-.7h79.2V2.6H2.6v29.3z"/>
</svg>
